<?xml version="1.0" standalone="no"?><!DOCTYPE svg PUBLIC "-//W3C//DTD SVG 1.1//EN" "http://www.w3.org/Graphics/SVG/1.1/DTD/svg11.dtd"><svg t="1762410182202" class="icon" viewBox="0 0 1024 1024" version="1.1" xmlns="http://www.w3.org/2000/svg" p-id="15223" xmlns:xlink="http://www.w3.org/1999/xlink" width="200" height="200"><path d="M65.632301 953.86771" p-id="15224" fill="#ffffff"></path><path d="M937.123862 82.376149c-22.171975-18.370393-53.207829-20.892843-93.734848-7.603165-40.527019 13.291724-76.641541 36.101219-108.955504 68.39881l-101.322663 101.33699-421.176458-100.727099c-7.010671-1.675152-13.291724-0.60989-19.023262 5.077645l-81.053014 81.080643c-4.424776 4.440126-6.324032 10.128685-5.700839 17.093307 1.277086 6.995321 5.047969 12.072967 10.766205 15.20633l321.740772 176.701444L274.630313 602.989317l-122.868375-33.5757c-0.638543-0.638543-2.524496-0.638543-5.062296-0.638543-5.703909 0-10.782577 1.883907-14.553461 5.719258l-60.810994 61.433164c-4.729721 4.77577-6.281053 10.126638-5.703909 15.84385 0.683569 6.934946 3.877307 11.283997 8.241708 14.538111l159.592788 119.739105 119.707382 159.576415c3.498684 4.681626 8.882298 7.604188 15.176654 8.241708l1.294482 0c5.700839 0 10.764158-1.886977 14.56574-5.688559l60.795645-60.82532c5.702885-5.686513 6.979972-12.651135 5.080715-19.646456l-33.592073-122.837676 164.032914-164.05031L757.259378 902.559137c3.01159 5.474688 6.949272 8.883321 13.290701 10.128685 1.261737 0.638543 2.537799 0.638543 4.425799 0.638543 5.078669 0 8.788154-1.337461 12.043291-3.802606l81.07962-60.795645c7.194866-5.41329 9.490142-12.651135 7.588839-20.892843l-101.334943-440.809611 101.975533-102.006232c32.29759-32.269961 55.091736-68.369134 68.39881-108.910479C958.015681 135.568628 955.509604 104.547101 937.123862 82.376149z" p-id="15225" fill="#ffffff"></path><path d="M957.393511 953.86771" p-id="15226" fill="#ffffff"></path></svg>