<?xml version="1.0" standalone="no"?><!DOCTYPE svg PUBLIC "-//W3C//DTD SVG 1.1//EN" "http://www.w3.org/Graphics/SVG/1.1/DTD/svg11.dtd"><svg t="1762409902516" class="icon" viewBox="0 0 1024 1024" version="1.1" xmlns="http://www.w3.org/2000/svg" p-id="8465" xmlns:xlink="http://www.w3.org/1999/xlink" width="200" height="200"><path d="M836.266667 4.266667L635.733333 0v366.933333l-12.8 21.333334c4.266667 4.266667 8.533333 4.266667 12.8 8.533333v8.533333h17.066667c12.8 8.533333 25.6 12.8 25.6 12.8l17.066667-29.866666s-8.533333-8.533333-29.866667-17.066667V34.133333h153.6c59.733333 34.133333 119.466667 68.266667 153.6 89.6L823.466667 213.333333h-136.533334v34.133334h145.066667L1024 132.266667V128c0-17.066667 0-17.066667-187.733333-123.733333zM174.933333 311.466667l-21.333333-25.6c-59.733333 29.866667-85.333333 76.8-102.4 106.666666l34.133333 17.066667c12.8-29.866667 38.4-68.266667 89.6-98.133333zM115.2 674.133333c42.666667 29.866667 102.4 29.866667 145.066667 29.866667v-34.133333c-59.733333-4.266667-98.133333-8.533333-128-29.866667l-17.066667 34.133333zM298.666667 285.866667c21.333333 0 42.666667 4.266667 68.266666 8.533333l8.533334-38.4c-25.6-4.266667-51.2-4.266667-72.533334-4.266667-29.866667 0-55.466667 0-76.8 8.533334l8.533334 34.133333c21.333333-8.533333 42.666667-8.533333 64-8.533333zM537.6 627.2c46.933333-21.333333 89.6-29.866667 132.266667-25.6v-34.133333c-46.933333-4.266667-93.866667 8.533333-145.066667 29.866666l12.8 29.866667zM337.066667 704c51.2-8.533333 93.866667-25.6 136.533333-51.2l-12.8-29.866667c-42.666667 21.333333-81.066667 38.4-128 46.933334l4.266667 34.133333zM576 324.266667c-46.933333-21.333333-93.866667-38.4-132.266667-51.2l-8.533333 34.133333c38.4 8.533333 85.333333 29.866667 128 51.2l12.8-34.133333zM652.8 917.333333h-25.6l-4.266667 34.133334h25.6c51.2 0 89.6-8.533333 119.466667-17.066667l-8.533333-29.866667c-25.6 8.533333-59.733333 12.8-106.666667 12.8zM857.6 674.133333c-25.6-42.666667-68.266667-76.8-115.2-93.866666l-8.533333 29.866666c42.666667 12.8 76.8 42.666667 98.133333 81.066667l25.6-17.066667zM849.066667 750.933333v8.533334c0 51.2-8.533333 89.6-29.866667 110.933333l25.6 25.6c29.866667-29.866667 42.666667-72.533333 42.666667-136.533333v-8.533334h-38.4zM435.2 853.333333l-12.8 29.866667c12.8 8.533333 29.866667 8.533333 42.666667 17.066667 29.866667 8.533333 59.733333 25.6 93.866666 29.866666l8.533334-34.133333c-29.866667-8.533333-55.466667-21.333333-89.6-29.866667-17.066667 0-29.866667-4.266667-42.666667-12.8zM243.2 870.4c-12.8-51.2-64-89.6-119.466667-89.6-68.266667 0-123.733333 55.466667-123.733333 123.733333C0 968.533333 55.466667 1024 123.733333 1024c64 0 115.2-51.2 123.733334-110.933333 29.866667-25.6 72.533333-38.4 110.933333-38.4l4.266667-34.133334c-46.933333-8.533333-85.333333 4.266667-119.466667 29.866667z m-119.466667 119.466667c-51.2 0-89.6-38.4-89.6-89.6 0-51.2 38.4-89.6 89.6-89.6S213.333333 853.333333 213.333333 900.266667c0 51.2-38.4 89.6-89.6 89.6zM93.866667 597.333333c-17.066667-29.866667-25.6-68.266667-25.6-119.466666V469.333333H34.133333v8.533334c0 55.466667 8.533333 102.4 29.866667 136.533333l29.866667-17.066667z" fill="#ffffff" p-id="8466"></path></svg>