<?xml version="1.0" standalone="no"?><!DOCTYPE svg PUBLIC "-//W3C//DTD SVG 1.1//EN" "http://www.w3.org/Graphics/SVG/1.1/DTD/svg11.dtd"><svg t="1763950799917" class="icon" viewBox="0 0 1024 1024" version="1.1" xmlns="http://www.w3.org/2000/svg" p-id="5231" xmlns:xlink="http://www.w3.org/1999/xlink" width="200" height="200"><path d="M619.598699 668.371043l161.137127 161.137127a71.995625 71.995625 0 0 0 17.998906 71.099945 71.952973 71.952973 0 0 0 101.553071 0 71.952973 71.952973 0 0 0 0-101.553071 71.995625 71.995625 0 0 0-71.099945-17.998906l-161.137127-161.137127a166.511208 166.511208 0 0 0 0-181.268606l161.137127-161.179778a71.995625 71.995625 0 0 0 71.099945-17.998907 71.952973 71.952973 0 0 0 0-101.595722 71.952973 71.952973 0 0 0-101.553071 0 71.995625 71.995625 0 0 0-17.998906 71.142597l-161.137127 161.009173a166.042042 166.042042 0 0 0-181.268606 0L276.979709 228.933292a71.995625 71.995625 0 0 0-17.998906-71.099945 71.952973 71.952973 0 0 0-101.553071 0 71.952973 71.952973 0 0 0 0 101.55307c19.150495 19.150495 46.660672 25.164348 71.099945 17.998907l161.137127 161.137127a166.2553 166.2553 0 0 0 0 181.439211L228.61298 781.056138a71.995625 71.995625 0 0 0-71.099945 17.998906 71.952973 71.952973 0 0 0 0 101.553071 71.952973 71.952973 0 0 0 101.553071 0c19.150495-19.150495 25.164348-46.660672 17.998906-71.099945l161.137127-161.137127a166.2553 166.2553 0 0 0 181.439211 0z" fill="#ffffff" p-id="5232"></path><path d="M632.180873 230.767304a16.889969 16.889969 0 0 0 16.03694-17.615044 171.629381 171.629381 0 0 1 49.90218-129.063247 171.032261 171.032261 0 0 1 241.535086 0 169.667415 169.667415 0 0 1 50.072786 120.788869c0 45.637037-17.785649 88.501731-50.072786 120.788868A168.899689 168.899689 0 0 1 814.515764 375.654233a16.676712 16.676712 0 0 0-17.316483 16.506106c-0.213257 9.383316 7.12279 17.060575 16.506105 17.273832 1.834012 0 3.540069 0.127954 5.374081 0.127955a202.594324 202.594324 0 0 0 144.503068-59.925269 203.447352 203.447352 0 0 0 59.925268-144.758975c0-54.63649-21.325718-105.98882-59.925268-144.716325a204.85485 204.85485 0 0 0-289.347346 0 205.025455 205.025455 0 0 0-59.712011 154.483503c0.469166 9.383316 8.402333 16.719363 17.657695 16.122244zM391.797376 797.73285a16.889969 16.889969 0 0 0-16.506106 17.316483 169.496809 169.496809 0 0 1-49.987483 125.139315 171.032261 171.032261 0 0 1-241.535086 0 171.032261 171.032261 0 0 1 0-241.577737 171.672032 171.672032 0 0 1 129.020596-49.902181 16.762015 16.762015 0 0 0 17.657695-15.994288 16.804666 16.804666 0 0 0-16.03694-17.657695 205.15341 205.15341 0 0 0-154.483504 59.712011 204.897501 204.897501 0 0 0 0 289.347346A203.916518 203.916518 0 0 0 204.642873 1023.956069a204.129775 204.129775 0 0 0 144.758975-59.839965 202.679626 202.679626 0 0 0 59.797314-149.877148 17.060575 17.060575 0 0 0-17.401786-16.506106z m417.42961-182.804057a16.889969 16.889969 0 0 0 1.620754 33.694634 171.586729 171.586729 0 0 1 129.020596 49.85953 171.032261 171.032261 0 0 1 0 241.577736 169.624763 169.624763 0 0 1-120.788869 50.072787 169.624763 169.624763 0 0 1-120.746216-50.072787A168.899689 168.899689 0 0 1 648.303116 814.96403a16.676712 16.676712 0 0 0-16.506106-17.316483 16.847317 16.847317 0 0 0-17.273832 16.506106c0 1.834012-0.127954 3.540069-0.127955 5.374081 0 54.679142 21.197764 105.775563 59.925269 144.545718A203.447352 203.447352 0 0 0 819.079467 1023.956069c54.679142 0 105.98882-21.325718 144.758976-59.925268a204.897501 204.897501 0 0 0 0-289.389997 205.579924 205.579924 0 0 0-154.611457-59.712011zM209.718394 409.434171a16.889969 16.889969 0 1 0-0.810378-33.822589 169.496809 169.496809 0 0 1-125.139315-49.902181 171.032261 171.032261 0 0 1 0-241.620388 171.032261 171.032261 0 0 1 241.535086 0 171.714684 171.714684 0 0 1 49.90218 129.063247 16.762015 16.762015 0 0 0 15.994289 17.615044 16.804666 16.804666 0 0 0 17.657695-16.036941 205.15341 205.15341 0 0 0-59.712011-154.483503 204.85485 204.85485 0 0 0-289.347346 0A203.703261 203.703261 0 0 0 0.00128 204.877882C0.00128 257.253846 19.919501 309.757764 59.798594 349.636857a202.807581 202.807581 0 0 0 149.9198 59.797314z" fill="#ffffff" p-id="5233"></path></svg>