<?xml version="1.0" standalone="no"?><!DOCTYPE svg PUBLIC "-//W3C//DTD SVG 1.1//EN" "http://www.w3.org/Graphics/SVG/1.1/DTD/svg11.dtd"><svg t="1762409763927" class="icon" viewBox="0 0 1024 1024" version="1.1" xmlns="http://www.w3.org/2000/svg" p-id="6316" xmlns:xlink="http://www.w3.org/1999/xlink" width="200" height="200"><path d="M924.683 128.177c89.015-51.327 77.445-71.382 63.355-95.79-25.38-43.847-138.08-36.235-228.249 15.84 0 0-74.04 42.422-164.08 94.157L404.956 14.712c-20.69-16.247-63.7-18.56-77.515-4.827l-32.87 22.57c-13.61 13.597-9.39 39.772 8.848 57.99l139.715 139.57c-90.105 51.872-164.827 95.11-166.597 96.877 0 0-97.587-63.972-125.287-76.005-27.697-11.965-89.285-40.247-126.17-18.967l-5.65 3.262c-24.77 14.277-25.927 41.605-3.062 61.252l185.787 159.422c34.3 29.435 91.942 36.03 128.827 14.752L924.683 128.177zM517.809 397.459c-26.39 0-71.687 19.935-71.687 44.517l0 0 0 467.391c0 24.59 21.397 44.52 47.792 44.52l0 0 0 44.52c0 12.28 10.707 22.25 23.895 22.25l0 0 71.69 0c13.21 0 23.9-9.97 23.9-22.25l0 0 0-44.52 238.949 0 0 44.52c0 12.28 10.71 22.25 23.91 22.25l0 0 71.68 0c13.205 0 23.88-9.97 23.88-22.25l0 0 0-44.52c26.41 0 47.81-19.95 47.79-44.52l0 0L1019.608 441.976c0-24.582-21.38-44.517-47.79-44.517l0 0c0 0-118.82-44.502-238.949-44.502l0 0C614.058 352.957 517.809 397.459 517.809 397.459L517.809 397.459zM613.398 419.704c0-12.285 10.71-22.257 23.895-22.257l0 0 191.174 0c13.2 0 23.88 9.987 23.88 22.257l0 0c0 12.3-10.68 22.257-23.88 22.257l0 0L637.293 441.961C624.108 441.961 613.398 432.004 613.398 419.704L613.398 419.704zM493.926 664.538l0-133.53c0-12.3 10.707-22.257 23.902-22.257l0 0 262.844 0 107.525 0 59.74 0c13.205 0 23.88 9.957 23.88 22.257l0 0 0 133.53c0 12.29-10.675 22.265-23.88 22.265l0 0-59.74 0L780.673 686.803 517.829 686.803C504.624 686.803 493.926 676.828 493.926 664.538L493.926 664.538zM852.348 831.458c0-30.73 26.74-55.635 59.735-55.635l0 0c32.995 0 59.735 24.905 59.735 55.635l0 0c0 30.74-26.74 55.64-59.735 55.64l0 0C879.088 887.098 852.348 862.198 852.348 831.458L852.348 831.458zM493.926 831.458c0-30.73 26.737-55.635 59.737-55.635l0 0c32.995 0 59.735 24.905 59.735 55.635l0 0c0 30.74-26.74 55.64-59.735 55.64l0 0C520.664 887.098 493.926 862.198 493.926 831.458L493.926 831.458z" fill="#ffffff" p-id="6317"></path></svg>