<?xml version="1.0" standalone="no"?><!DOCTYPE svg PUBLIC "-//W3C//DTD SVG 1.1//EN" "http://www.w3.org/Graphics/SVG/1.1/DTD/svg11.dtd"><svg t="1762410418303" class="icon" viewBox="0 0 1024 1024" version="1.1" xmlns="http://www.w3.org/2000/svg" p-id="21151" xmlns:xlink="http://www.w3.org/1999/xlink" width="200" height="200"><path d="M880.128 112a32 32 0 0 1 32 32v736.128a32 32 0 0 1-32 32H144a32 32 0 0 1-32-32V144a32 32 0 0 1 32-32h736.128z m-40 728.128V229.312l-610.816 610.816h610.816z m0-469.312v90.496l-378.816 378.88H370.816l469.312-469.376z m0 232.064v90.496l-146.752 146.752H602.88l237.248-237.248z m-45.248-418.816H653.44l-469.312 469.312v141.504l610.816-610.816z m-232.064 0h-141.44L184 421.312v141.504l378.752-378.752z m-232 0H184.064v146.752l146.752-146.752z" p-id="21152" fill="#ffffff"></path></svg>