<?xml version="1.0" standalone="no"?><!DOCTYPE svg PUBLIC "-//W3C//DTD SVG 1.1//EN" "http://www.w3.org/Graphics/SVG/1.1/DTD/svg11.dtd"><svg t="1762409973782" class="icon" viewBox="0 0 1024 1024" version="1.1" xmlns="http://www.w3.org/2000/svg" p-id="9566" xmlns:xlink="http://www.w3.org/1999/xlink" width="200" height="200"><path d="M804.6592 475.3408H219.3408c-80.6912 0-146.2272-65.536-146.2272-146.2272s65.536-146.2272 146.2272-146.2272H591.872c15.36 43.8272 56.7296 73.1136 103.0144 73.1136 46.2848 0 87.6544-29.4912 103.0144-73.1136h189.6448c20.2752 0 36.6592-16.384 36.6592-36.6592s-16.384-36.6592-36.6592-36.6592h-189.6448c-15.36-43.8272-56.7296-73.1136-103.0144-73.1136-46.2848 0-87.6544 29.4912-103.0144 73.1136H219.3408C98.304 109.7728 0 208.0768 0 329.1136s98.304 219.3408 219.3408 219.3408h585.1136c80.6912 0 146.2272 65.536 146.2272 146.2272s-65.536 146.2272-146.2272 146.2272H432.128c-15.36-43.8272-56.7296-73.1136-103.0144-73.1136s-87.6544 29.4912-103.0144 73.1136H36.6592c-20.2752 0-36.6592 16.384-36.6592 36.6592s16.384 36.6592 36.6592 36.6592h189.6448c15.36 43.8272 56.7296 73.1136 103.0144 73.1136s87.6544-29.4912 103.0144-73.1136h372.3264c121.2416 0 219.3408-98.304 219.3408-219.3408 0-121.2416-98.304-219.5456-219.3408-219.5456zM694.8864 109.7728c20.2752-0.8192 37.2736 15.1552 37.888 35.2256 0.8192 20.2752-15.1552 37.2736-35.2256 37.888h-2.6624c-20.2752-0.8192-36.0448-17.6128-35.2256-37.888 0.6144-19.2512 15.9744-34.6112 35.2256-35.2256zM329.1136 914.2272c-20.2752 0-36.6592-16.384-36.6592-36.4544 0-20.2752 16.384-36.6592 36.4544-36.6592 20.2752 0 36.6592 16.384 36.6592 36.6592 0.2048 20.0704-16.1792 36.4544-36.4544 36.4544z" fill="#ffffff" p-id="9567"></path></svg>