<?xml version="1.0" standalone="no"?><!DOCTYPE svg PUBLIC "-//W3C//DTD SVG 1.1//EN" "http://www.w3.org/Graphics/SVG/1.1/DTD/svg11.dtd"><svg t="1763968903654" class="icon" viewBox="0 0 1024 1024" version="1.1" xmlns="http://www.w3.org/2000/svg" p-id="5663" xmlns:xlink="http://www.w3.org/1999/xlink" width="200" height="200"><path d="M512 0C229.504 0 0 229.504 0 512s229.504 512 512 512 512-229.504 512-512-229.504-512-512-512z m-18.304 949.952c-227.648-9.152-410.432-192.896-419.648-419.648h146.304a291.456 291.456 0 0 0 59.072 158.464 294.848 294.848 0 0 0 77.504 70.848 297.6 297.6 0 0 0 71.936 32.512 291.392 291.392 0 0 0 64.832 11.52v146.304z m0-219.456a227.328 227.328 0 0 1-46.976-9.408 216.704 216.704 0 0 1-60.032-29.696 216.384 216.384 0 0 1-42.368-38.848 218.176 218.176 0 0 1-38.272-66.176 220.16 220.16 0 0 1-12.544-56.064H441.6c6.4 25.6 26.496 45.696 52.096 52.096v148.096z m0-288.896c-25.6 6.4-44.8 26.496-52.096 52.096H293.504a220.096 220.096 0 0 1 63.744-136.448 221.184 221.184 0 0 1 136.448-63.744V441.6z m0-221.248a292.48 292.48 0 0 0-273.344 273.344H74.048C83.2 266.048 266.944 83.2 493.696 74.048v146.304z m36.608 73.152c20.096 1.792 39.296 6.4 56.64 12.8A108.8 108.8 0 0 1 627.2 243.2a314.88 314.88 0 0 0-96.896-23.744V73.152a437.12 437.12 0 0 1 274.24 111.552l-52.096 52.992c10.048 6.4 20.096 14.656 27.456 24.704l51.2-51.2a420.16 420.16 0 0 1 37.504 45.184 415.488 415.488 0 0 1 26.368 41.28 436.352 436.352 0 0 1 55.872 196.032H804.48a300.48 300.48 0 0 0-7.232-49.408 292.032 292.032 0 0 0-15.616-47.488 112.512 112.512 0 0 1-24 23.04 104.448 104.448 0 0 1-25.344 13.248 108.928 108.928 0 0 1-13.76 3.968c6.4 18.24 11.008 36.544 12.8 56.64H583.296a72.384 72.384 0 0 0-11.904-23.744l53.952-53.952a143.04 143.04 0 0 1-24.64-27.456l-57.6 57.6c-4.608-1.792-8.256-3.648-13.76-4.544V293.504h0.96z m0 289.792c25.6-6.4 46.592-26.496 52.992-52.992h147.2a217.152 217.152 0 0 1-12.544 56.064 214.144 214.144 0 0 1-21.248 43.008 220.928 220.928 0 0 1-166.4 101.12v-147.2z m0 366.656v-146.304a301.12 301.12 0 0 0 52.096-8.064 291.84 291.84 0 0 0 177.216-128.512A288.896 288.896 0 0 0 795.52 582.4a285.632 285.632 0 0 0 8.064-52.096h146.304a440.448 440.448 0 0 1-28.736 139.072 442.816 442.816 0 0 1-47.232 90.048 437.76 437.76 0 0 1-343.68 190.528zM693.952 403.2a73.856 73.856 0 0 1-51.648-21.504 73.472 73.472 0 0 1-21.504-51.648c0-40.192 32.896-73.152 73.152-73.152 40.192 0 73.152 32.96 73.152 73.152 0 40.256-32.96 73.152-73.152 73.152z" p-id="5664" fill="#ffffff"></path></svg>