<?xml version="1.0" standalone="no"?><!DOCTYPE svg PUBLIC "-//W3C//DTD SVG 1.1//EN" "http://www.w3.org/Graphics/SVG/1.1/DTD/svg11.dtd"><svg t="1762410151431" class="icon" viewBox="0 0 1024 1024" version="1.1" xmlns="http://www.w3.org/2000/svg" p-id="14934" xmlns:xlink="http://www.w3.org/1999/xlink" width="200" height="200"><path d="M819.2 328.661333a129.408 129.408 0 0 1 169.685333 87.957334 138.666667 138.666667 0 0 1-98.048 169.813333l-726.4 194.666667L34.645333 506.666667l179.776-48.192 61.930667 69.845333 542.848-199.68zM199.466667 705.450667l674.816-180.821334a74.666667 74.666667 0 0 0 50.986666-97.088 65.408 65.408 0 0 0-83.946666-38.826666L257.472 603.477333l-64.661333-72.938666-67.498667 18.090666 74.133333 156.8z m51.925333-543.978667l181.589333-48.64 175.466667 234.496-225.792 91.797333L251.392 161.493333z m90.624 41.962667l72.618667 153.6 92.885333-37.76-99.84-133.418667-65.664 17.578667zM21.333333 853.333333h981.333334v64H21.333333v-64z" fill="#ffffff" p-id="14935"></path></svg>