<?xml version="1.0" standalone="no"?><!DOCTYPE svg PUBLIC "-//W3C//DTD SVG 1.1//EN" "http://www.w3.org/Graphics/SVG/1.1/DTD/svg11.dtd"><svg t="1762410327053" class="icon" viewBox="0 0 1024 1024" version="1.1" xmlns="http://www.w3.org/2000/svg" p-id="20076" xmlns:xlink="http://www.w3.org/1999/xlink" width="200" height="200"><path d="M665.6 460.8l-6.4-6.4-128-102.4c-12.8-12.8-25.6-12.8-38.4 0l-128 102.4s0 6.4-6.4 6.4v6.4c0 6.4-6.4 12.8-6.4 12.8v409.6c0 12.8 6.4 19.2 12.8 25.6l128 102.4h38.4l128-102.4c6.4-6.4 12.8-12.8 12.8-25.6V480c0-6.4 0-12.8-6.4-19.2zM512 416l76.8 64-76.8 64-76.8-64 76.8-64z m-96 128l64 51.2v326.4l-64-51.2V544z m128 377.6V595.2l64-51.2v326.4l-64 51.2zM486.4 268.8c6.4 6.4 12.8 6.4 19.2 6.4 6.4 0 12.8 0 19.2-6.4l128-102.4c6.4-6.4 12.8-12.8 12.8-25.6s-6.4-19.2-12.8-25.6L524.8 12.8C512 0 499.2 0 486.4 6.4l-128 102.4c-12.8 12.8-12.8 19.2-12.8 32s6.4 19.2 12.8 25.6l128 102.4z m19.2-198.4l76.8 64-76.8 64-76.8-64 76.8-64z" p-id="20077" fill="#ffffff"></path><path d="M422.4 332.8c6.4-6.4 12.8-12.8 12.8-25.6s-6.4-12.8-12.8-19.2l-128-102.4c-12.8-12.8-25.6-12.8-38.4-6.4L128 288s0 6.4-6.4 6.4v6.4c0 6.4-6.4 12.8-6.4 12.8v409.6c0 12.8 6.4 19.2 12.8 25.6l128 102.4c6.4 6.4 12.8 6.4 19.2 6.4h12.8c12.8-6.4 19.2-19.2 19.2-32V428.8l115.2-96zM275.2 243.2l76.8 64-76.8 64-76.8-64 76.8-64zM179.2 704V377.6l64 51.2v326.4l-64-51.2zM908.8 307.2c0-6.4 0-12.8-6.4-12.8v-6.4s0-6.4-6.4-6.4l-128-102.4c-12.8-12.8-25.6-12.8-38.4 0l-128 102.4c-6.4 12.8-12.8 19.2-12.8 25.6s6.4 19.2 12.8 25.6l115.2 96v396.8c0 12.8 6.4 25.6 19.2 32h12.8c6.4 0 12.8 0 19.2-6.4l128-102.4c6.4-6.4 12.8-12.8 12.8-25.6V307.2z m-160-64l76.8 64-76.8 64-76.8-64 76.8-64z m32 512V428.8l64-51.2V704l-64 51.2z" p-id="20078" fill="#ffffff"></path></svg>