<?xml version="1.0" standalone="no"?><!DOCTYPE svg PUBLIC "-//W3C//DTD SVG 1.1//EN" "http://www.w3.org/Graphics/SVG/1.1/DTD/svg11.dtd"><svg t="1762410292190" class="icon" viewBox="0 0 1024 1024" version="1.1" xmlns="http://www.w3.org/2000/svg" p-id="19019" xmlns:xlink="http://www.w3.org/1999/xlink" width="200" height="200"><path d="M955.733333 898.304a36.352 36.352 0 0 1-34.56-24.832l-158.464-473.6v-1.536l-115.2-345.6a72.832 72.832 0 0 0-69.76-50.346667H485.12a72.576 72.576 0 0 0-68.864 49.706667L141.653333 873.386667a36.266667 36.266667 0 0 1-34.56 24.874666h-41.344a61.141333 61.141333 0 1 0 0 122.24h896a60.714667 60.714667 0 0 0 61.44-60.586666 60.970667 60.970667 0 0 0-61.44-61.653334h-5.973333zM502.485333 93.312h61.696a19.712 19.712 0 0 1 18.176 12.8 20.48 20.48 0 0 1-1.152 16 19.882667 19.882667 0 0 1-12.8 9.813333L499.2 150.186667a18.176 18.176 0 0 1-21.333333-22.186667l7.125333-21.76a18.176 18.176 0 0 1 17.536-12.8v-0.085333zM417.28 345.6l197.632-53.504a36.48 36.48 0 0 1 44.8 23.424l21.632 64a36.48 36.48 0 0 1-25.088 46.72l-245.888 66.56a36.394667 36.394667 0 0 1-43.904-46.592l25.6-76.8a36.266667 36.266667 0 0 1 25.6-24.576L417.28 345.6z m-122.368 367.488l422.4-113.408a36.352 36.352 0 0 1 43.946667 23.68l32.853333 98.816a36.437333 36.437333 0 0 1-24.32 46.592l-478.848 128a33.621333 33.621333 0 0 1-9.472 1.152h-14.848a36.266667 36.266667 0 0 1-34.432-47.36l38.4-113.792a36.650667 36.650667 0 0 1 25.6-23.68h-1.28z" p-id="19020" fill="#ffffff"></path></svg>