<?xml version="1.0" standalone="no"?><!DOCTYPE svg PUBLIC "-//W3C//DTD SVG 1.1//EN" "http://www.w3.org/Graphics/SVG/1.1/DTD/svg11.dtd"><svg t="1762409500233" class="icon" viewBox="0 0 1335 1024" version="1.1" xmlns="http://www.w3.org/2000/svg" p-id="11994" xmlns:xlink="http://www.w3.org/1999/xlink" width="260.7421875" height="200"><path d="M890.39855111 148.67391289L670.2898551 204.94347823v670.38260888l220.10869601-56.26956533V148.67391289z m73.36956444-1.52608711v671.36087021l220.10869601 50.00869513V197.15652177L963.76811555 147.14782578z m-366.84782578 57.79565244L376.81159378 148.67391289v670.38260889l0.15652177 0.03913066 219.95217422 56.23043467V204.94347823z m-293.47826045-54.23478223l-146.73913066 42.84782578V862.60869599l144.39130401-42.18260888 2.34782665-0.66521778V150.70869599zM136.55072445 121.47826045L340.10724622 62l275.71304356 70.43478222c11.66086933 3.01304355 23.86956533 3.01304355 35.60869599 0L927.02463734 62l272.73913066 61.94347823A74.66086934 74.66086934 0 0 1 1257.24637688 197.15652177v671.36086935c0 41.4-32.86956533 74.97391289-73.36956532 74.97391289-5.36086934 0-10.68260888-0.58695645-15.92608711-1.76086934l-223.94347823-50.86956534a71.80434756 71.80434756 0 0 0-33.73043466 0.43043468L633.62463734 962 359.20289866 891.87826045a71.84347822 71.84347822 0 0 0-37.95652177 0.62608711l-144.39130401 42.18260889c-38.97391289 11.34782578-79.55217422-11.7-90.70434843-51.49565244A76.53913067 76.53913067 0 0 1 83.33333333 862.56956533V193.55652177c0-33.45652177 21.71739112-62.88260888 53.21739112-72.1173911z" p-id="11995" fill="#ffffff"></path></svg>